<?xml version="1.0" standalone="no"?>
<!DOCTYPE svg PUBLIC "-//W3C//DTD SVG 20010904//EN"
 "http://www.w3.org/TR/2001/REC-SVG-20010904/DTD/svg10.dtd">
<svg version="1.0" xmlns="http://www.w3.org/2000/svg"
 width="260.000000pt" height="261.000000pt" viewBox="0 0 260.000000 261.000000"
 preserveAspectRatio="xMidYMid meet">

<g transform="translate(0.000000,261.000000) scale(0.100000,-0.100000)"
fill="#000000" stroke="none">
<path d="M1120 2599 c-29 -12 -68 -46 -82 -73 -5 -10 -18 -65 -28 -123 -11
-58 -20 -106 -22 -108 -2 -1 -42 -19 -90 -39 l-87 -38 -87 63 c-74 54 -93 63
-138 67 -33 3 -63 -1 -79 -9 -39 -21 -223 -203 -242 -240 -29 -55 -16 -118 41
-199 85 -121 81 -109 52 -176 -15 -33 -30 -71 -33 -87 -8 -30 -6 -29 -140 -52
-93 -15 -123 -31 -159 -79 -19 -25 -21 -41 -21 -201 0 -160 2 -176 21 -201 37
-50 67 -64 179 -84 59 -11 109 -21 110 -22 1 -2 19 -42 39 -90 l38 -88 -50
-68 c-27 -38 -57 -83 -66 -100 -22 -42 -20 -110 3 -148 29 -47 207 -217 244
-233 54 -22 108 -9 187 45 122 86 105 82 201 42 l84 -35 17 -99 c21 -120 39
-158 93 -190 39 -23 51 -24 196 -24 141 0 157 2 193 23 51 29 73 73 94 192
l17 97 89 39 89 38 84 -60 c94 -68 130 -82 188 -73 34 5 57 23 149 113 172
168 180 207 71 359 l-64 89 36 84 c19 46 38 87 42 91 3 4 51 14 105 23 114 18
153 38 184 93 20 36 22 53 22 191 0 131 -3 157 -20 190 -28 56 -71 78 -189 97
-94 16 -104 20 -113 43 -6 14 -23 54 -39 88 l-27 62 64 92 c108 156 103 189
-56 348 -158 159 -187 163 -347 55 l-94 -64 -47 24 c-26 13 -66 29 -89 36 -46
14 -48 18 -69 160 -10 69 -28 105 -70 136 -37 29 -38 29 -198 31 -93 1 -172
-2 -186 -8z m322 -249 c28 -172 27 -170 116 -195 31 -9 92 -35 135 -56 43 -21
87 -39 96 -39 10 0 67 34 126 75 59 41 110 75 113 75 10 0 172 -163 172 -173
0 -4 -34 -56 -75 -114 -41 -59 -75 -113 -75 -121 0 -8 18 -51 39 -96 22 -44
47 -106 56 -137 8 -31 23 -64 33 -72 10 -9 72 -25 144 -38 l127 -22 3 -101 c5
-166 17 -150 -129 -174 -79 -13 -132 -27 -144 -38 -10 -9 -25 -40 -33 -68 -9
-28 -33 -88 -56 -134 -22 -46 -40 -92 -40 -101 0 -10 34 -66 75 -124 41 -59
75 -110 75 -114 0 -10 -162 -173 -173 -173 -4 0 -55 34 -114 75 -58 41 -114
75 -124 75 -10 0 -53 -18 -96 -39 -43 -21 -103 -46 -134 -55 -31 -9 -64 -25
-73 -35 -13 -14 -55 -210 -56 -258 0 -10 -32 -13 -128 -13 l-129 0 -21 126
c-13 80 -27 133 -38 145 -9 10 -42 26 -72 34 -31 9 -86 32 -124 51 -97 49
-113 47 -229 -36 -54 -39 -104 -70 -111 -70 -17 0 -168 151 -168 168 0 8 32
59 70 115 39 55 70 111 70 124 0 13 -15 54 -34 91 -18 37 -43 97 -55 134 -12
36 -29 72 -37 79 -9 7 -72 22 -142 34 l-127 21 -3 126 c-2 114 -1 127 15 131
10 3 65 13 123 22 58 9 114 23 125 30 12 7 28 38 39 71 10 33 35 98 57 145 47
103 48 100 -46 228 -36 50 -65 97 -65 104 0 7 38 50 84 96 l84 83 108 -76 c60
-42 118 -76 131 -76 13 0 54 15 91 34 37 18 98 43 135 56 42 13 73 30 81 43 8
12 21 67 31 122 9 55 19 110 22 123 5 22 7 23 131 20 l126 -3 18 -105z"/>
<path d="M1166 1854 c-243 -59 -426 -292 -426 -544 0 -305 255 -560 560 -560
308 0 560 252 560 560 0 261 -179 485 -435 545 -75 18 -182 18 -259 -1z m267
-153 c178 -62 283 -217 275 -410 -3 -77 -7 -96 -40 -163 -45 -91 -103 -147
-196 -191 -62 -30 -75 -32 -172 -32 -97 0 -110 2 -172 32 -93 44 -151 100
-196 191 -36 73 -37 80 -37 181 0 98 2 111 31 172 52 110 128 178 243 221 66
24 193 23 264 -1z"/>
</g>
</svg>
